<?xml version="1.0" encoding="UTF-8"?>
<!DOCTYPE svg PUBLIC "-//W3C//DTD SVG 1.1//EN" "http://www.w3.org/Graphics/SVG/1.1/DTD/svg11.dtd">
<!-- Creator: CorelDRAW 2017 -->
<svg xmlns="http://www.w3.org/2000/svg" xml:space="preserve" width="3.3866mm" height="3.8098mm" version="1.1" style="shape-rendering:geometricPrecision; text-rendering:geometricPrecision; image-rendering:optimizeQuality; fill-rule:evenodd; clip-rule:evenodd"
viewBox="0 0 338.66 380.98"
 xmlns:xlink="http://www.w3.org/1999/xlink">
 <defs>
  <style type="text/css">
   <![CDATA[
    .fil0 {fill:#FEFEFE}
   ]]>
  </style>
 </defs>
 <g id="Слой_x0020_1">
  <metadata id="CorelCorpID_0Corel-Layer"/>
  <g id="_2202131511984">
   <path class="fil0" d="M148.07 46.28c0,0 5.43,-14.56 6.17,-26.64 5.42,12.33 16.46,26.12 11.35,24.66 -10.36,-2.96 -17.52,1.98 -17.52,1.98z"/>
   <path class="fil0" d="M313.57 132.13l16.15 9.91 5.1 -26.92c0,0.01 -15.3,15.31 -21.25,17.01z"/>
   <path class="fil0" d="M18.01 198.15l-14.16 -5.67c0,0 4.53,16.99 6.22,16.99 1.72,0.02 6.81,-1.7 7.94,-11.32z"/>
   <path class="fil0" d="M188.04 318.85c0,0 11.19,-0.99 17.56,-4.39 6.81,-3.62 4.53,46.89 4.53,46.89 0,0 -20.96,-30.6 -22.09,-42.5z"/>
   <path class="fil0" d="M155.16 244.61c6.24,-2.83 10.77,-40.23 7.94,-57.79 -2.84,-17.57 1.69,-18.7 -2.84,-36.28 -4.52,-17.56 -8.49,-40.79 -9.07,-52.13 -0.56,-11.34 -8.5,-37.4 0,-41.93 8.51,-4.53 19.84,-0.57 19.84,5.66 0,6.23 6.8,57.8 9.07,59.49 2.26,1.7 4.53,21.53 3.96,30.04 -0.57,8.5 3.96,44.76 8.51,52.7 4.54,7.93 10.2,28.89 22.67,17.56 12.47,-11.34 34.01,-36.27 41.37,-39.1 7.36,-2.83 27.2,-19.28 27.2,-19.28 0,0 13.6,-19.26 20.97,-19.26 7.38,0 13.6,-1.69 13.04,3.4 -0.57,5.1 -22.11,23.24 -22.11,23.24 0,0 -20.97,24.93 -25.5,31.72 -4.54,6.81 -30.6,28.9 -39.11,36.28 -8.5,7.35 -16.43,20.4 -20.4,31.16 -3.98,10.77 -10.78,20.39 -27.77,19.26 -17,-1.13 -31.17,-24.94 -34.58,-26.07 -3.4,-1.13 -51.57,-11.33 -61.78,-19.84 -10.2,-8.5 -53.84,-26.07 -59.5,-28.89 -5.67,-2.84 -1.13,-12.47 -1.13,-12.47 0,0 38.54,5.09 44.21,8.5 5.67,3.4 26.08,13.04 36.84,17 10.78,3.96 27.2,14.16 30.04,14.16 2.83,0.04 11.9,5.71 18.13,2.87z"/>
  </g>
 </g>
</svg>
