<?xml version="1.0" encoding="UTF-8"?>
<!DOCTYPE svg PUBLIC "-//W3C//DTD SVG 1.1//EN" "http://www.w3.org/Graphics/SVG/1.1/DTD/svg11.dtd">
<!-- Creator: CorelDRAW 2017 -->
<svg xmlns="http://www.w3.org/2000/svg" xml:space="preserve" width="3.4712mm" height="3.3866mm" version="1.1" style="shape-rendering:geometricPrecision; text-rendering:geometricPrecision; image-rendering:optimizeQuality; fill-rule:evenodd; clip-rule:evenodd"
viewBox="0 0 347.12 338.66"
 xmlns:xlink="http://www.w3.org/1999/xlink">
 <defs>
  <style type="text/css">
   <![CDATA[
    .fil0 {fill:#FEFEFE}
   ]]>
  </style>
 </defs>
 <g id="Слой_x0020_1">
  <metadata id="CorelCorpID_0Corel-Layer"/>
  <path class="fil0" d="M32.66 0l91.63 0 0 19.46 -91.63 0c-3.49,0 -6.33,2.84 -6.33,6.33l0 104.51 -19.46 0 0 -104.51c0,-14.19 11.6,-25.79 25.79,-25.79zm64.4 87.17c3.66,-0.91 0.61,-13.41 2.13,-17.37 1.52,-3.66 5.49,-8.23 6.1,-9.14 0.61,-5.79 0,-11.28 -0.91,-12.19 -0.92,-0.62 -4.27,-0.92 -7.63,-0.92 -4.57,7.31 -9.45,16.76 -9.45,20.12 0.01,6.09 6.1,20.41 9.76,19.5zm151.78 76.2c8.23,0.61 13.41,10.36 13.41,10.36 -3.05,-15.24 -20.42,-24.08 -24.99,-26.21 -3.05,-1.22 -5.79,-5.18 -11.58,-11.58 0.3,3.05 0.61,8.23 -2.44,10.36 -4.57,3.35 -7.31,1.22 -7.31,1.22 0,0 -0.91,4.88 -5.49,5.18 -4.57,0.3 -13.41,-7.62 -13.41,-7.62 0,0 -2.14,2.13 -8.23,1.83 -6.1,-0.3 -11.28,-4.88 -11.28,-4.88 0,0 -2.74,1.83 -7.01,1.22 2.13,2.13 4.57,4.27 6.4,6.4 5.49,6.1 12.8,12.19 15.24,14.93 0.3,0.3 0.3,0.3 0.61,0.3 6.4,-1.52 12.5,-2.44 14.93,-2.74 5.18,-0.61 17.07,-0.61 22.55,1.52 5.79,2.13 10.67,16.46 10.67,16.46 3.05,-7.31 -2.13,-15.85 -2.13,-15.85 10.67,7.62 10.67,27.13 10.67,27.13 5.79,-7.62 2.13,-15.24 2.13,-15.24 5.18,3.66 8.23,8.23 8.23,8.23 -0.61,-12.79 -10.97,-21.02 -10.97,-21.02zm-73.76 10.97c0.61,-0.3 0.91,-0.61 0.91,-0.61 2.13,-3.35 7.01,-5.79 12.5,-7.31 -9.14,-8.23 -24.69,-25.6 -28.95,-26.82 -5.49,-1.52 -16.15,-4.57 -16.15,-4.57 0,0 10.06,0.61 15.24,1.22 1.83,0.3 3.66,1.22 5.79,2.44 4.27,0.91 9.75,1.52 11.58,0.3 0.61,-0.3 1.52,-0.3 2.13,0 2.44,1.22 7.31,3.66 10.67,3.96 4.57,0.61 7.92,-2.74 7.92,-2.74 0,0 9.14,9.14 12.8,8.53 3.66,-0.61 4.57,-5.49 4.57,-5.49 0,0 4.57,3.96 7.31,0 1.52,-2.44 1.83,-6.71 1.83,-10.06 -2.74,-2.74 -5.79,-5.79 -10.06,-9.14 -15.85,-13.41 -33.22,-18.59 -42.06,-17.98 -8.84,0.61 -21.64,7.31 -21.64,7.31l9.14 -9.14c0,0 -11.28,1.52 -20.12,10.67 -8.84,9.14 -27.74,19.51 -32.92,10.36 -5.18,-9.14 3.05,-27.13 27.13,-37.49 24.08,-10.36 20.12,-33.22 20.12,-33.22 -4.86,-26.82 -22.54,-33.22 -32.6,-31.09 -10.36,2.13 -17.07,13.72 -17.07,13.72 0,0 -1.83,2.74 -4.27,6.71 2.74,0 5.79,0.61 7.31,1.22 2.74,1.52 2.74,7.92 2.74,12.8 1.83,-0.91 4.57,-1.83 8.23,-2.44 9.14,-2.13 11.28,-7.31 11.28,-7.31 0,0 6.1,-3.66 9.14,5.79 3.05,9.14 -7.62,20.42 -17.98,23.16 -10.36,2.44 -37.79,26.52 -34.44,51.81 3.66,24.99 31.7,31.7 45.72,32.31 13.72,0.61 23.16,10.36 31.39,13.72 1.83,0.91 3.35,1.22 4.88,1.22l13.72 28.95c0.3,0.3 0.61,0.91 0.91,1.22 0.3,0.61 2.74,6.1 0.3,9.14 -3.35,4.27 -38.4,12.19 -41.15,16.76 -2.74,4.57 -3.96,22.86 -3.96,22.86l-1.83 7.92c0.3,-0.3 0.61,-0.61 2.13,-1.52 2.44,-1.52 5.49,-12.8 5.49,-12.8l-3.35 17.07c0,0 5.79,-6.1 7.31,-11.58 1.83,-5.49 2.74,-14.32 5.49,-16.76 0.3,-0.3 0.61,-0.61 0.91,-0.91 3.05,-3.05 6.4,-5.18 10.36,-6.4l25.3 -8.53c0,0 4.27,-3.05 1.22,-11.58 -2.12,-6.42 -10.65,-25.62 -14.92,-35.68zm-64.31 -128.93c-1.83,0 -3.05,-1.52 -3.05,-3.05 0,-1.53 1.52,-3.05 3.05,-3.05 1.53,0 3.05,1.52 3.05,3.05 0,1.53 -1.22,3.05 -3.05,3.05zm24.08 218.23l0 0c0,0 0,0 0,0zm32 -76.5l-3.04 -7.32 -5.79 -1.52 4.57 40.54 6.7 -2.44 -2.44 -29.26zm3.66 67.66c0,0 0.61,-8.84 0,-11.89 -0.61,-3.05 -0.61,-10.36 -0.61,-10.36l-6.1 3.66 0 7.31c0,0 -2.13,6.71 -0.91,9.75 0.91,3.05 0.91,3.05 0.91,3.05l2.45 44.2c0,0 0,5.18 -7.31,3.96 -5.79,-0.91 -12.8,-2.13 -12.8,-2.13 0,0 -1.52,5.79 -4.57,7.31 0,0 7.31,1.83 11.89,5.79 1.22,0.91 9.75,-3.66 15.24,-3.66 5.49,0 3.96,-10.36 3.96,-10.36 0,0 -3.67,-18.89 -2.15,-46.63zm42.42 -254.8l101.53 0c14.19,0 25.79,11.6 25.79,25.79l0 104.51 -19.46 0 0 -104.51c0,-3.49 -2.84,-6.33 -6.33,-6.33l-101.53 0 0 -19.46zm127.32 218.94l0 93.93c0,14.19 -11.6,25.79 -25.79,25.79l-101.53 0 0 -19.46 101.53 0c3.49,0 6.33,-2.84 6.33,-6.33l0 -93.93 19.46 0zm-215.96 119.72l-91.63 0c-14.19,0 -25.79,-11.6 -25.79,-25.79l0 -93.93 19.46 0 0 93.93c0,3.49 2.84,6.33 6.33,6.33l91.63 0 0 19.46z"/>
 </g>
</svg>
