<?xml version="1.0" encoding="UTF-8"?>
<!DOCTYPE svg PUBLIC "-//W3C//DTD SVG 1.1//EN" "http://www.w3.org/Graphics/SVG/1.1/DTD/svg11.dtd">
<!-- Creator: CorelDRAW 2017 -->
<svg xmlns="http://www.w3.org/2000/svg" xml:space="preserve" width="1.2698mm" height="1.1852mm" version="1.1" style="shape-rendering:geometricPrecision; text-rendering:geometricPrecision; image-rendering:optimizeQuality; fill-rule:evenodd; clip-rule:evenodd"
viewBox="0 0 126.98 118.52"
 xmlns:xlink="http://www.w3.org/1999/xlink">
 <defs>
  <style type="text/css">
   <![CDATA[
    .fil0 {fill:#FEFEFE}
   ]]>
  </style>
 </defs>
 <g id="Слой_x0020_1">
  <metadata id="CorelCorpID_0Corel-Layer"/>
  <path class="fil0" d="M117.92 58.34c2.06,-2.55 3.21,-5.27 3.21,-8.05 0,-11.47 -6.24,-23.49 -17.12,-32.98 -11.45,-9.98 -26.07,-15.48 -41.12,-15.48 -15.06,0 -29.67,5.5 -41.13,15.49 -10.88,9.49 -17.13,21.5 -17.13,32.97 0,2.87 1.21,5.66 3.39,8.28 -3.93,3.77 -8.88,9.52 -6.54,12.69 0.94,1.27 2.2,1.64 3.55,1.58 -0.25,1.1 -0.4,2.29 -0.4,3.52 0,2.55 0.57,4.87 1.59,6.71 -1.03,1.92 -1.59,3.78 -1.59,5.51l0 6.51c0,12.11 25.59,21.59 58.24,21.59 32.66,0 58.24,-9.49 58.24,-21.59l0 -6.51c0,-1.73 -0.55,-3.59 -1.58,-5.51 1.02,-1.84 1.58,-4.17 1.58,-6.71 0,-0.68 -0.06,-1.34 -0.13,-1.98 1.08,0.33 2.14,0.43 3.07,0.1 0.82,-0.31 1.46,-0.95 1.83,-1.83 1.4,-3.33 -3.88,-9.92 -7.96,-14.31zm-57.46 6.62c0,-0.9 -0.73,-1.63 -1.63,-1.63 -0.91,0 -1.64,0.73 -1.64,1.63 0,0.91 0.73,1.64 1.64,1.64 0.9,0 1.63,-0.73 1.63,-1.64zm-38.21 -8.4c0,-0.9 -0.72,-1.63 -1.63,-1.63 -0.9,0 -1.63,0.73 -1.63,1.63 0,0.91 0.73,1.64 1.63,1.64 0.91,0 1.63,-0.73 1.63,-1.64zm39.84 -17.66c0,-0.91 -0.73,-1.64 -1.63,-1.64 -0.91,0 -1.63,0.73 -1.63,1.64 0,0.9 0.72,1.63 1.63,1.63 0.9,0 1.63,-0.73 1.63,-1.63zm29.7 22.08c0,-0.91 -0.72,-1.64 -1.63,-1.64 -0.9,0 -1.63,0.73 -1.63,1.64 0,0.9 0.73,1.63 1.63,1.63 0.91,0 1.63,-0.73 1.63,-1.63zm-23.84 -48.31c0,-0.91 -0.73,-1.63 -1.63,-1.63 -0.91,0 -1.63,0.72 -1.63,1.63 0,0.91 0.72,1.63 1.63,1.63 0.9,0 1.63,-0.72 1.63,-1.63zm-25.38 48.31c0,-0.91 -0.73,-1.64 -1.63,-1.64 -0.91,0 -1.63,0.73 -1.63,1.64 0,0.9 0.72,1.63 1.63,1.63 0.9,0 1.63,-0.73 1.63,-1.63zm53.6 -38.77c0,-0.91 -0.73,-1.64 -1.63,-1.64 -0.91,0 -1.63,0.73 -1.63,1.64 0,0.9 0.72,1.63 1.63,1.63 0.9,0 1.63,-0.73 1.63,-1.63zm-9.43 20.43c0,-0.9 -0.72,-1.63 -1.63,-1.63 -0.91,0 -1.63,0.73 -1.63,1.63 0,0.91 0.72,1.63 1.63,1.63 0.91,0 1.63,-0.72 1.63,-1.63zm-66.12 -5.38c0,-0.9 -0.72,-1.63 -1.63,-1.63 -0.9,0 -1.63,0.73 -1.63,1.63 0,0.91 0.73,1.64 1.63,1.64 0.91,0 1.63,-0.73 1.63,-1.64zm28.55 -8.04c0,-0.91 -0.73,-1.64 -1.63,-1.64 -0.91,0 -1.63,0.73 -1.63,1.64 0,0.9 0.72,1.63 1.63,1.63 0.9,0 1.63,-0.73 1.63,-1.63zm19.48 22.46c0,-0.9 -0.72,-1.63 -1.63,-1.63 -0.91,0 -1.63,0.73 -1.63,1.63 0,0.91 0.72,1.63 1.63,1.63 0.91,0 1.63,-0.72 1.63,-1.63zm43.75 -4.14c0,-0.91 -0.73,-1.63 -1.63,-1.63 -0.91,0 -1.63,0.72 -1.63,1.63 0,0.9 0.72,1.63 1.63,1.63 0.9,0 1.63,-0.73 1.63,-1.63zm-37.37 -21.59c0,-0.9 -0.72,-1.63 -1.63,-1.63 -0.91,0 -1.63,0.73 -1.63,1.63 0,0.91 0.72,1.63 1.63,1.63 0.91,0 1.63,-0.72 1.63,-1.63zm-34.09 -10.26c0,-0.9 -0.73,-1.63 -1.63,-1.63 -0.91,0 -1.63,0.73 -1.63,1.63 0,0.91 0.72,1.63 1.63,1.63 0.9,0 1.63,-0.72 1.63,-1.63zm-4.22 26.95c0,-0.9 -0.72,-1.63 -1.63,-1.63 -0.91,0 -1.63,0.73 -1.63,1.63 0,0.91 0.72,1.63 1.63,1.63 0.91,0 1.63,-0.72 1.63,-1.63zm86.92 29.08c-0.13,0.33 -0.29,0.42 -0.41,0.47 -0.98,0.36 -3.24,-0.81 -4.61,-1.5 -1.4,-0.71 -2.17,-1.1 -2.9,-1.1 -0.01,0 -0.02,0 -0.03,0 -1.13,0.03 -2.02,0.89 -3.16,1.96 -1.13,1.08 -2.54,2.42 -4.26,2.89 -1.3,0.35 -2.25,-0.07 -3.36,-0.57 -1.36,-0.6 -3.05,-1.36 -5.15,-0.2 -0.78,0.42 -1.67,1.07 -2.71,1.81 -2.14,1.53 -4.8,3.46 -7.09,3.88 -1.92,0.35 -3.77,-0.26 -5.73,-0.9 -1.98,-0.65 -4.04,-1.31 -6.19,-0.93 -1.78,0.32 -3.23,1.22 -4.62,2.11 -1.92,1.2 -3.9,2.45 -7.09,2.45 -0.01,0 -0.01,0 -0.02,0 -2.42,0 -3.55,-0.59 -5.1,-1.41 -1.29,-0.68 -2.87,-1.52 -5.47,-2.13 -0.84,-0.21 -1.64,-0.28 -2.4,-0.28 -2.07,0 -3.86,0.62 -5.48,1.18 -1.8,0.63 -3.36,1.16 -5.07,0.87 -1.54,-0.26 -2.6,-1.17 -3.82,-2.22 -1.32,-1.13 -2.82,-2.42 -5.15,-3.1 -1.96,-0.58 -3.7,-0.36 -5.38,-0.13 -1.86,0.25 -3.62,0.49 -5.7,-0.37 -1.9,-0.77 -3.11,-2.09 -4.28,-3.36 -1.31,-1.41 -2.66,-2.86 -4.73,-3.05 -1.47,-0.13 -3.13,0.52 -4.88,1.2 -2.69,1.05 -4.52,1.66 -5.36,0.53 -0.95,-1.28 2.18,-5.47 6.24,-9.42 9.27,8.98 30.18,15.57 53.18,15.57 23.18,0 44.22,-6.69 53.39,-15.77 4.44,4.87 7.98,9.95 7.34,11.52zm-4.96 -21.43c0,13.28 -29.46,23.22 -55.79,23.22 -26.34,0 -55.8,-9.92 -55.8,-23.22 0,-21.28 24.37,-46.02 55.8,-46.02 31.42,0 55.79,24.74 55.79,46.02zm0 44.8c0,10.38 -25.54,19.15 -55.79,19.15 -30.25,0 -55.8,-8.77 -55.8,-19.15l0 -6.51c0,-1.06 0.28,-2.2 0.78,-3.37 0.21,0.19 0.41,0.38 0.63,0.55 8,6.07 25.69,16.26 54.39,16.26 28.69,0 46.38,-10.19 54.38,-16.26 0.22,-0.17 0.42,-0.36 0.63,-0.55 0.51,1.17 0.78,2.31 0.78,3.37l0 6.51z"/>
 </g>
</svg>
