<?xml version="1.0" encoding="UTF-8"?>
<!DOCTYPE svg PUBLIC "-//W3C//DTD SVG 1.1//EN" "http://www.w3.org/Graphics/SVG/1.1/DTD/svg11.dtd">
<!-- Creator: CorelDRAW 2017 -->
<svg xmlns="http://www.w3.org/2000/svg" xml:space="preserve" width="5.9266mm" height="5.9266mm" version="1.1" style="shape-rendering:geometricPrecision; text-rendering:geometricPrecision; image-rendering:optimizeQuality; fill-rule:evenodd; clip-rule:evenodd"
viewBox="0 0 592.66 592.66"
 xmlns:xlink="http://www.w3.org/1999/xlink">
 <defs>
  <style type="text/css">
   <![CDATA[
    .fil0 {fill:#FEFEFE}
   ]]>
  </style>
 </defs>
 <g id="Слой_x0020_1">
  <metadata id="CorelCorpID_0Corel-Layer"/>
  <path class="fil0" d="M583.1 310.77c-14.83,-85.31 -50.69,-117.46 -126.11,-160.11 6.8,-24.73 0,-50.08 -20.4,-74.19 -43.89,-51.31 -144.66,-85.92 -216.37,-74.18 -42.03,6.8 -91.49,21.02 -133.52,72.95l0 0c-116.84,148.98 -86.55,336.91 -36.48,517.43l24.11 -6.81c-46.36,-168.76 -75.42,-343.71 22.26,-482.19l0 0c32.14,-45.74 69.85,-67.38 127.96,-77.27 63.06,-10.51 155.79,21.02 194.11,65.53 12.99,15.45 18.55,30.29 16.08,45.75 -23.49,-11.75 -46.37,-16.08 -68,-12.99 -56.26,-45.74 -123.64,-60.58 -169.39,-36.47 -30.29,15.45 -45.74,45.75 -42.65,82.84 3.09,36.47 32.14,49.45 60.58,61.82 23.49,10.51 48.22,21.02 61.2,45.74 6.18,17.93 19.78,34.62 41.42,51.93 -6.18,1.86 -12.98,3.71 -19.78,4.95 -59.35,9.89 -142.19,-19.79 -176.81,-62.44l-19.16 15.45c24.11,29.68 66.76,53.79 111.89,65.53 -6.8,74.8 0,155.17 21.02,238.63l24.11 -6.19c-19.78,-79.74 -26.58,-155.78 -20.4,-227.49 11.75,1.85 24.11,3.09 35.24,3.09 9.89,0 19.16,-0.62 27.82,-2.47 14.21,-2.48 27.2,-6.8 39.56,-12.37 10.51,6.8 22.25,14.22 35.24,21.02 3.71,9.27 7.41,21.02 11.12,34.62 6.19,21.02 13.6,45.75 25.35,73.56 0,0.62 0.62,1.86 0.62,1.86 9.89,23.49 23.49,48.84 42.03,74.8l4.33 6.18 7.42 -1.23c43.89,-7.42 79.13,-42.66 100.15,-98.3 18.54,-45.74 23.49,-102 15.45,-148.98zm-155.78 -148.99c35.85,19.79 61.82,35.24 81.6,53.17 -33.38,9.27 -55.64,34 -69.86,64.91 -22.87,-39.56 -54.4,-53.16 -89.63,-68.62 -11.13,-4.95 -22.26,-9.89 -34,-15.45 12.36,-23.5 27.81,-38.33 46.98,-43.9 6.8,-1.85 12.98,-3.09 19.16,-3.09 17.31,0 34,6.8 45.75,12.98zm-202.15 48.22c-28.44,-12.36 -44.51,-19.78 -45.75,-40.8 -2.47,-27.2 8.04,-47.6 29.06,-58.73 28.44,-14.83 78.51,-12.36 129.82,24.11 -18.55,9.9 -34,27.2 -46.37,50.7 -9.89,19.16 -16.07,35.85 -18.54,51.31 -14.84,-12.37 -32.77,-19.79 -48.22,-26.59zm172.47 145.28l-1.85 -3.71 -3.71 -1.85c-19.78,-11.13 -35.85,-21.02 -48.84,-30.3l0 -0.61c0,0 0,0 0,0 -21.01,-15.46 -34,-29.06 -40.8,-42.66l0 0c-0.61,-1.85 -1.23,-3.09 -1.85,-4.33 -6.18,-16.07 -3.71,-32.76 4.33,-53.16 12.36,6.18 24.11,11.13 34.62,16.07 41.41,17.93 68.61,29.67 87.78,78.51 -8.04,29.06 -12.37,61.2 -13.6,90.88 -0.62,-2.48 -1.24,-4.33 -1.86,-6.8 -4.94,-17.31 -9.27,-30.91 -14.22,-42.04zm147.75 97.06c-9.89,25.96 -32.14,69.23 -73.56,80.98 -14.22,-21.02 -25.35,-42.04 -34,-61.2 -3.09,-154.55 25.34,-228.12 90.87,-234.92 14.84,19.79 24.11,43.9 30.29,78.51 7.42,42.04 1.86,94.59 -13.6,136.63zm-313.42 -330.12c-15.45,0 -28.44,12.36 -28.44,28.44 0,15.45 12.37,28.43 28.44,28.43 15.45,0 28.44,-12.36 28.44,-28.43 0,-15.46 -12.37,-28.44 -28.44,-28.44z"/>
 </g>
</svg>
