<?xml version="1.0" encoding="UTF-8"?>
<!DOCTYPE svg PUBLIC "-//W3C//DTD SVG 1.1//EN" "http://www.w3.org/Graphics/SVG/1.1/DTD/svg11.dtd">
<!-- Creator: CorelDRAW 2017 -->
<svg xmlns="http://www.w3.org/2000/svg" xml:space="preserve" width="5.9266mm" height="5.9266mm" version="1.1" style="shape-rendering:geometricPrecision; text-rendering:geometricPrecision; image-rendering:optimizeQuality; fill-rule:evenodd; clip-rule:evenodd"
viewBox="0 0 592.66 592.66"
 xmlns:xlink="http://www.w3.org/1999/xlink">
 <defs>
  <style type="text/css">
   <![CDATA[
    .fil0 {fill:black}
   ]]>
  </style>
 </defs>
 <g id="Слой_x0020_1">
  <metadata id="CorelCorpID_0Corel-Layer"/>
  <g id="_2202132864720">
   <path class="fil0" d="M463.91 5.52l-463.92 0 0 514.75 103.27 0 403.35 66.87 86.06 -507.71 -128.76 -19.2 0 -54.71zm0 129.69l40.78 6.91 -40.78 240.63 0 -247.54zm-438.5 -104.27l413.08 0 0 463.91 -413.08 0 0 -463.91zm537.86 69.8l-77.5 457.18 -227.09 -37.65 205.23 0 0 -69.23 13.81 2.33 56.29 -332.07 -70.1 -11.87 0 -23.49 99.36 14.8z"/>
   <path class="fil0" d="M50.83 405.88l362.24 0 0 -349.52 -362.24 0 0 349.52zm25.42 -25.42l0 -27.37c15.75,-29.67 45.32,-70.87 62.96,-70.87 11.63,0 17.17,4.96 25.6,12.47 10.6,9.45 23.73,21.21 50.23,21.21 25.69,0 42.92,-19.97 59.72,-39.28 15.58,-17.91 30.02,-34.82 49.32,-34.82 20.69,0 36,38.28 47.56,66.24 5.32,12.85 10.59,23.99 16.01,32.22l0 40.2 -311.4 0zm311.4 -298.68l0 196.43c-13.89,-31.18 -32.08,-61.83 -63.05,-61.83 -30.87,0 -51,23.15 -68.76,43.56 -13.66,15.7 -26.56,30.54 -40.67,30.54 -16.81,0 -24.12,-6.51 -33.38,-14.77 -9.46,-8.43 -21.23,-18.91 -42.54,-18.91 -23.27,0 -46.27,24.43 -63,47.88l0 -222.9 311.4 0z"/>
   <path class="fil0" d="M152.51 208.88c28.03,0 50.84,-22.81 50.84,-50.84 0,-28.03 -22.81,-50.84 -50.84,-50.84 -28.03,0 -50.84,22.81 -50.84,50.84 0,28.03 22.81,50.84 50.84,50.84zm0 -76.26c14.02,0 25.42,11.4 25.42,25.42 0,14.02 -11.4,25.42 -25.42,25.42 -14.02,0 -25.42,-11.4 -25.42,-25.42 0,-14.02 11.4,-25.42 25.42,-25.42z"/>
  </g>
 </g>
</svg>
