<?xml version="1.0" encoding="UTF-8"?>
<!DOCTYPE svg PUBLIC "-//W3C//DTD SVG 1.1//EN" "http://www.w3.org/Graphics/SVG/1.1/DTD/svg11.dtd">
<!-- Creator: CorelDRAW 2017 -->
<svg xmlns="http://www.w3.org/2000/svg" xml:space="preserve" width="1.2698mm" height="1.4392mm" version="1.1" style="shape-rendering:geometricPrecision; text-rendering:geometricPrecision; image-rendering:optimizeQuality; fill-rule:evenodd; clip-rule:evenodd"
viewBox="0 0 126.98 143.92"
 xmlns:xlink="http://www.w3.org/1999/xlink">
 <defs>
  <style type="text/css">
   <![CDATA[
    .fil0 {fill:#FEFEFE}
   ]]>
  </style>
 </defs>
 <g id="Слой_x0020_1">
  <metadata id="CorelCorpID_0Corel-Layer"/>
  <path class="fil0" d="M99.82 86.67c-5.06,-10.93 -15.12,-19.76 -26.98,-23.59 -17.39,-5.62 -10.53,-25.68 3.88,-22.98l-10.17 -3.57 11.98 -13.12 -16.44 5.6c-15.52,-19.53 -34.64,-6.23 -45.99,14.72 -8.12,15 -10.98,36.95 -7.03,50.6 10.91,37.63 68.93,48.26 88.28,26.82 -24.29,1.48 -43.74,-10.09 -53.26,-32.66 -8.18,-19.4 11.24,-22.17 11.9,-14.88 0.66,7.28 -2.97,8.6 0,18.52 6.62,22.09 63.41,42.51 43.83,-5.46zm-59.64 53.08c-81.59,-30.29 -24.91,-161.19 26.71,-117.5l27.87 -9.7c-6.96,8.63 -14.23,16.18 -21.04,23.03l21.41 7c-6.39,-0.09 -27.94,-1.64 -22.68,8.9 3.17,6.39 36.16,17.08 45.26,39.85 13.83,34.71 -33.24,64.86 -77.53,48.42zm5.7 -112.98c1.64,0 2.97,1.87 2.97,4.22 0,2.33 -1.33,4.21 -2.97,4.21 -1.64,0 -2.97,-1.88 -2.97,-4.21 0,-2.35 1.33,-4.22 2.97,-4.22zm64.44 -27.22c10.37,5.05 17.53,15.69 17.53,28.01 0,11.28 -5.99,21.16 -14.96,26.62l-3.91 -3.87c8.08,-4.37 13.57,-12.92 13.57,-22.75 0,-10.68 -6.49,-19.85 -15.76,-23.79l3.53 -4.22zm-12.29 14.69c6.77,0.67 12.06,6.37 12.06,13.32 0,6.51 -4.64,11.94 -10.78,13.14l-3.23 -3.21c0.2,0 0.42,0.02 0.62,0.02 5.5,0 9.94,-4.45 9.94,-9.95 0,-5.49 -4.44,-9.93 -9.94,-9.93 -0.54,0 -1.09,0.05 -1.62,0.13l2.95 -3.52zm5.8 -6.94c8.36,2.93 14.37,10.89 14.37,20.26 0,8.64 -5.12,16.1 -12.48,19.51l-3.23 -3.22c6.69,-2.37 11.49,-8.77 11.49,-16.29 0,-8.09 -5.56,-14.88 -13.08,-16.76l2.93 -3.5z"/>
 </g>
</svg>
