<?xml version="1.0" encoding="UTF-8"?>
<!DOCTYPE svg PUBLIC "-//W3C//DTD SVG 1.1//EN" "http://www.w3.org/Graphics/SVG/1.1/DTD/svg11.dtd">
<!-- Creator: CorelDRAW 2017 -->
<svg xmlns="http://www.w3.org/2000/svg" xml:space="preserve" width="1.6932mm" height="1.3546mm" version="1.1" style="shape-rendering:geometricPrecision; text-rendering:geometricPrecision; image-rendering:optimizeQuality; fill-rule:evenodd; clip-rule:evenodd"
viewBox="0 0 169.32 135.46"
 xmlns:xlink="http://www.w3.org/1999/xlink">
 <defs>
  <style type="text/css">
   <![CDATA[
    .fil0 {fill:#FEFEFE}
   ]]>
  </style>
 </defs>
 <g id="Слой_x0020_1">
  <metadata id="CorelCorpID_0Corel-Layer"/>
  <path class="fil0" d="M169.32 75.19c0,-5.06 -1.33,-48.73 -44.72,-48.73l-76.95 0c-1.33,0 -2.66,1.07 -2.66,2.66 0,1.33 1.06,2.67 2.66,2.67 0.27,0 20.24,0.53 27.96,9.85l-46.06 0c-6.92,0 -12.52,-5.59 -12.52,-12.52 0,-6.92 5.6,-12.51 12.52,-12.51l103.57 0c1.59,0 2.66,-1.07 2.66,-2.66 0,-1.6 -1.07,-2.67 -2.66,-2.67l-103.57 0c-9.85,0 -17.84,7.99 -17.84,17.84 0,9.85 7.99,17.84 17.84,17.84l48.72 0c0.27,1.07 0.27,2.13 0.27,3.2 0,0.53 0,0.8 0,1.33l-51.12 0c-12.25,0 -22.1,-9.85 -22.1,-22.1 0,-12.25 9.85,-22.1 22.1,-22.1 1.6,0 2.66,-1.06 2.66,-2.66 0,-1.6 -1.06,-2.66 -2.66,-2.66 -15.18,0 -27.42,12.24 -27.42,27.42 0,15.18 12.24,27.42 27.42,27.42l51.92 0c1.06,3.73 3.19,7.19 6.12,10.12 9.32,8.79 24.23,10.39 29.02,10.39l0.8 0c1.33,0 2.66,0 3.99,0.26 -2.93,3.2 -3.73,7.72 -2.13,11.72 0.53,1.06 1.33,1.59 2.4,1.59 0.26,0 0.8,0 1.06,-0.26 1.33,-0.53 1.87,-2.13 1.33,-3.46 -1.06,-2.4 -0.26,-5.33 2.13,-6.66 1.87,-1.33 4.26,-1.33 5.86,0 1.33,0.8 2.4,1.86 3.2,2.93 -2.13,0 -4.53,0.53 -6.39,1.86 -1.33,0.8 -1.6,2.4 -0.54,3.73 0.8,1.33 2.4,1.6 3.73,0.53 1.6,-1.06 3.46,-1.33 5.06,-0.53l0.27 0.27c1.86,0.8 2.92,2.39 2.92,4.26 0,1.86 -0.26,3.72 -0.79,5.59 -0.54,-0.53 -1.07,-1.07 -1.6,-1.6 -2.13,-1.6 -4.79,-2.4 -7.46,-2.13 -1.33,0.27 -2.39,1.6 -2.39,2.93 0.26,1.33 1.59,2.4 2.93,2.4 1.06,-0.27 2.39,0.26 3.46,0.79 1.06,0.8 1.59,1.87 1.59,2.93 0.27,1.33 -0.26,2.67 -1.06,3.46 -3.2,3.2 -6.92,5.33 -10.92,6.39 -0.53,-1.06 -1.06,-1.86 -2.13,-2.39l-9.85 -5.33c-2.66,-1.33 -5.85,-1.06 -8.25,0.8 -2.93,2.4 -3.73,6.92 -1.33,10.12 0.53,0.8 1.33,1.6 2.13,2.13 -0.8,0.53 -1.6,1.33 -2.13,2.13 -2.4,3.19 -1.87,7.72 1.33,10.12 1.33,1.06 2.93,1.59 4.79,1.59 1.33,0 2.4,-0.26 3.46,-0.79l9.85 -5.33c1.87,-1.06 2.67,-2.93 2.4,-5.06 0,0 0,0 0,-0.26 44.73,-0.8 47.12,-39.14 47.12,-46.86zm-60.17 -10.12c-18.1,-2.93 -18.37,-14.65 -18.37,-15.18 0,-0.8 -0.53,-1.33 -1.33,-1.33 0,0 0,0 0,0 -0.8,0 -1.33,0.53 -1.33,1.33 0,0.27 0.27,14.64 20.77,17.84 0,0 0.26,0 0.26,0 0.54,0 1.34,-0.53 1.34,-1.07 -0.27,-0.79 -0.8,-1.33 -1.34,-1.59zm12.78 0.53c-1.33,0 -2.39,0 -3.46,0.27 -0.8,0 -1.33,0.53 -1.33,1.33 0,0.8 0.53,1.33 1.33,1.33 0,0 0,0 0,0 1.07,0 2.4,0 3.73,-0.27 0.8,0 1.33,-0.8 1.33,-1.33 0,-0.53 -0.8,-1.33 -1.6,-1.33zm0.8 -22.1c0,-3.99 -3.19,-7.19 -7.19,-7.19 -3.99,0 -7.18,3.2 -7.18,7.19 0,3.99 3.19,7.19 7.18,7.19 4,0 7.19,-3.2 7.19,-7.19zm41 26.36c-6.12,10.65 -17.57,12.25 -22.36,12.51 -2.4,-3.72 -6.12,-6.65 -11.18,-8.25 8.25,-3.19 20.23,-10.38 25.56,-27.42 5.59,7.98 7.45,17.04 7.98,23.16zm-19.7 23.7c0,-3.2 -0.53,-6.13 -1.6,-8.79 5.33,-0.53 14.91,-2.4 21.3,-10.65 0,0.27 0,0.8 0,1.07 0,3.99 -0.53,11.71 -3.72,19.43 -5.06,2.13 -12.25,2.13 -16.24,2.13 0.26,-1.06 0.26,-2.13 0.26,-3.19zm-29.28 -21.57c-0.27,0 -0.27,0 0,0 -0.27,0 -0.27,0 0,0 -5.06,0.27 -17.84,-1.86 -25.3,-8.79 -3.46,-3.46 -5.32,-7.72 -5.32,-12.78 0,-9.32 -5.86,-14.91 -12.78,-18.37l53.25 0c14.37,0 23.43,5.33 29.28,12.25 -5.59,20.5 -21.03,26.89 -28.22,28.76 -2.93,-0.54 -6.39,-0.8 -10.12,-1.07l-0.79 0zm-9.06 39.67c0.27,-0.26 0.8,-0.53 1.33,-0.53 0.27,0 0.8,0 1.07,0.27l8.25 4.52c-0.26,0 -0.26,0.27 -0.53,0.27l-3.99 0.8c-2.4,0.53 -5.06,-0.54 -6.66,-2.67 -0.53,-0.79 -0.53,-2.13 0.53,-2.66zm2.13 16.51c-0.8,0.53 -1.59,0.27 -2.39,-0.27 -0.8,-0.8 -1.07,-1.86 -0.27,-2.93 1.33,-1.59 3.2,-2.66 5.33,-2.66 0.53,0 0.79,0 1.33,0l4.79 1.07 -8.79 4.79zm25.3 -12.25c4.52,-3.73 9.05,-9.05 10.65,-16.77 0.79,0 1.86,0 2.92,0 3.47,0 7.99,-0.27 11.99,-1.33 -4.53,7.98 -12.25,15.44 -25.56,18.1z"/>
 </g>
</svg>
